<?xml version="1.0" encoding="utf-8"?>
<!-- Generator: Adobe Illustrator 25.0.1, SVG Export Plug-In . SVG Version: 6.00 Build 0)  -->
<svg version="1.1" id="Layer_1" xmlns="http://www.w3.org/2000/svg" xmlns:xlink="http://www.w3.org/1999/xlink" x="0px" y="0px"
	 viewBox="0 0 200 200" style="enable-background:new 0 0 200 200;" xml:space="preserve">
<style type="text/css">
	.st0{fill:#EBEBEB;}
	.st1{fill:#FFFFFF;}
	.st2{fill:#E6E6E6;}
	.st3{fill:#F5F5F5;}
	.st4{fill:#088178;}
	.st5{fill:#263238;}
	.st6{opacity:0.1;enable-background:new    ;}
	.st7{opacity:0.6;fill:#FFFFFF;enable-background:new    ;}
	.st8{opacity:0.2;fill:#FFFFFF;enable-background:new    ;}
</style>
<g>
	<g id="freepik--background-complete--inject-2">
		<rect x="-0.4" y="163.3" class="st0" width="200.9" height="0.1"/>
		<rect x="167" y="169.8" class="st0" width="13.3" height="0.1"/>
		<rect x="104.1" y="168.5" class="st0" width="5.2" height="0.1"/>
		<rect x="129.1" y="168.9" class="st0" width="10.9" height="0.1"/>
		<rect x="144.1" y="166" class="st0" width="22.5" height="0.1"/>
		<rect x="20.6" y="170.7" class="st0" width="10.7" height="0.1"/>
		<rect x="34.9" y="170.7" class="st0" width="9.2" height="0.1"/>
		<rect x="52.2" y="168.5" class="st0" width="24.4" height="0.1"/>
		<path class="st0" d="M94.8,145.4H17.2c-1.3,0-2.3-1-2.3-2.3V34c0-1.3,1-2.3,2.3-2.3h77.6c1.3,0,2.3,1,2.3,2.3c0,0,0,0,0,0v109
			C97.1,144.4,96,145.4,94.8,145.4z M17.2,31.9c-1.2,0-2.2,1-2.2,2.2v109c0,1.2,1,2.2,2.2,2.2h77.6c1.2,0,2.2-1,2.2-2.2V34
			c0-1.2-1-2.2-2.2-2.2H17.2z"/>
		<path class="st0" d="M181.7,145.4h-77.6c-1.3,0-2.3-1-2.3-2.3V34c0-1.3,1-2.3,2.3-2.3h77.6c1.3,0,2.3,1,2.3,2.3v109
			C184,144.4,182.9,145.4,181.7,145.4z M104.1,31.9c-1.2,0-2.2,1-2.2,2.2v109c0,1.2,1,2.2,2.2,2.2h77.6c1.2,0,2.2-1,2.2-2.2V34
			c0-1.2-1-2.2-2.2-2.2H104.1z"/>
		<path class="st0" d="M187.2,87.7c1.3-4.4,1.1-9-0.4-13.3c5.9-8.5,3.8-20.1-4.6-26c-1.2-0.8-2.5-1.5-3.8-2.1
			c-2.4-17.6-18.7-29.9-36.4-27.5c-5.3,0.7-10.3,2.8-14.6,5.9c-6.3-6.6-16.7-6.8-23.3-0.6C100.9,27.3,99,31.5,99,36
			c-13.5,2.7-22.2,15.8-19.5,29.3c0.8,4.1,2.7,8,5.4,11.2c-5,9-1.7,20.4,7.3,25.4c1.2,0.7,2.5,1.2,3.9,1.6c3.2,0.9,6.5,1,9.7,0.2
			c9,12.4,26,15.6,38.9,7.4c3,7,5.5,17.6,0.2,27.9c19.4-1.9,33.4-20.5,30.6-37.6C181.1,98.8,185.5,93.8,187.2,87.7z"/>
		<path class="st1" d="M149.9,135.2c-0.1,0-0.2,0-0.3-0.1c-0.1-0.1-0.1-0.3-0.1-0.4c2.7-9.5,0.2-18.7-2.3-24.7l-1.3-3l-2.8,1.8
			c-11.6,7.4-27,4.5-35.1-6.7l-1.1-1.5l-1.8,0.5c-8.5,2.1-17.1-3.1-19.3-11.6c-1-3.9-0.4-8,1.5-11.6l0.9-1.7L87,74.6
			c-7.9-9.3-6.7-23.2,2.6-31.1c2.8-2.4,6.2-4,9.9-4.8l2.2-0.4l0-2.3c0.1-7.5,6.2-13.6,13.8-13.6c3.7,0,7.2,1.6,9.8,4.2l1.7,1.8
			l2-1.5c13.1-9.6,31.5-6.8,41.1,6.3c2.9,3.9,4.7,8.5,5.4,13.4l0.2,1.6l1.5,0.6c8.1,3.2,12.1,12.4,8.9,20.6c-0.5,1.1-1,2.2-1.8,3.3
			l-0.8,1.2l0.5,1.4c3.3,9.2-1,19.4-10,23.5l-2,0.9l0.4,2.1c1.2,7.3-1,15.2-6,21.8c-4.2,5.5-10,9.5-16.5,11.4
			C150,135.2,150,135.2,149.9,135.2z M146.1,106c0,0,0.1,0,0.1,0c0.1,0,0.2,0.1,0.2,0.2l1.5,3.5c2.6,6,5,15,2.6,24.5
			c6.1-2,11.5-5.8,15.4-10.9c4.9-6.4,7-14.1,5.9-21.2l-0.4-2.4c0-0.2,0.1-0.4,0.2-0.4l2.2-1c8.5-3.9,12.6-13.7,9.5-22.5l-0.6-1.6
			c0-0.1,0-0.3,0.1-0.4l0.9-1.4c4.8-6.8,3.1-16.2-3.7-21c-1-0.7-2-1.2-3.1-1.7l-1.7-0.7c-0.1-0.1-0.2-0.2-0.2-0.3l-0.3-1.9
			c-2.2-15.7-16.6-26.6-32.2-24.4c-4.7,0.7-9.2,2.5-13,5.3l-2.3,1.7c-0.2,0.1-0.4,0.1-0.5,0l-1.9-2c-2.4-2.5-5.8-4-9.3-4
			c-7.1,0-12.8,5.7-12.9,12.7l0,2.6c0,0.2-0.1,0.4-0.3,0.4l-2.6,0.5c-11.5,2.3-19,13.5-16.6,25c0.7,3.5,2.3,6.8,4.6,9.5l1.4,1.7
			c0.1,0.1,0.1,0.3,0,0.5l-1.1,1.9c-0.6,1-1,2-1.3,3.1c-2.3,8,2.3,16.4,10.3,18.7c2.5,0.7,5.2,0.8,7.8,0.1l2.1-0.5
			c0.2,0,0.3,0,0.4,0.2l1.3,1.8c7.8,10.8,22.8,13.7,34,6.5l3.2-2C146,106,146,106,146.1,106L146.1,106z"/>
		<path class="st1" d="M121.8,68.4L111,66.7l0.2-1.1c0.2-1.5,0.6-3,1.3-4.4c0.6-1.1,1.4-2,2.3-2.8c1-0.8,3.1-2.2,6.3-4.1
			c1.7-1,2.7-2,2.8-3.1c0.2-0.9,0-1.8-0.5-2.6c-0.5-0.7-1.4-1.1-2.7-1.3c-1.2-0.2-2.5,0.1-3.5,0.8c-1,0.8-1.8,2.2-2.4,4.4L104,49.5
			c1-4,3-7,5.9-9.1c2.9-2.1,7.1-2.7,12.3-1.9c4.1,0.6,7.3,2,9.6,4.1c3.1,2.9,4.3,6.2,3.7,10.1c-0.3,1.6-1,3.2-2.1,4.4
			c-1.1,1.4-3.2,2.9-6.3,4.6c-2.1,1.2-3.5,2.2-4.2,3.1C122.3,65.9,121.9,67.2,121.8,68.4z M110.2,69.5l11.5,1.8l-1.6,10.2l-11.5-1.8
			L110.2,69.5z"/>
		<path class="st1" d="M149.2,84.2l-6-4.8l0.5-0.6c0.7-0.9,1.4-1.6,2.4-2.2c0.8-0.4,1.6-0.8,2.4-0.9c1.8-0.2,3.5-0.3,5.3-0.3
			c1.4,0,2.3-0.3,2.8-0.9c0.4-0.5,0.6-1.1,0.6-1.8c-0.1-0.7-0.6-1.3-1.2-1.7c-0.7-0.6-1.6-0.9-2.4-0.8c-0.9,0.1-1.9,0.7-3,1.8
			l-5.5-5.7c2-2.1,4.3-3.2,6.8-3.4c2.5-0.2,5.3,0.9,8.2,3.2c2.3,1.9,3.7,3.8,4.4,5.9c0.9,2.8,0.4,5.3-1.3,7.5
			c-0.7,0.9-1.7,1.6-2.8,2c-1.2,0.4-3,0.6-5.5,0.6c-1.7,0-3,0.1-3.6,0.4C150.5,82.9,149.8,83.5,149.2,84.2z M141.8,80.7l6.4,5.2
			l-4.6,5.6l-6.4-5.2L141.8,80.7z"/>
		<path class="st1" d="M150.9,49.4l-2.6-3.5l0.4-0.3c0.5-0.4,1-0.7,1.6-0.9c0.5-0.1,1-0.2,1.5-0.1c1,0.1,2,0.3,3,0.6
			c0.8,0.2,1.3,0.2,1.7-0.1c0.3-0.2,0.5-0.5,0.6-0.9c0-0.4-0.1-0.8-0.4-1.1c-0.3-0.4-0.7-0.7-1.2-0.8c-0.5-0.1-1.1,0.1-1.9,0.6
			l-2.2-3.9c1.3-0.8,2.8-1.1,4.3-0.9c1.4,0.2,2.8,1.2,4,3c1,1.4,1.5,2.7,1.6,3.9c0.1,1.5-0.6,3-1.8,3.9c-0.5,0.4-1.2,0.6-1.8,0.7
			c-1.1,0-2.1-0.1-3.1-0.5c-0.7-0.2-1.4-0.3-2.1-0.3C151.8,48.8,151.3,49.1,150.9,49.4z M147.3,46.4l2.8,3.8l-3.3,2.4l-2.8-3.8
			L147.3,46.4z"/>
		<path class="st2" d="M51.1,99.5c-3.4,0-6.7-0.9-9.6-2.7c-4.1-2.4-7-6.2-7.9-10.4c-5.9-0.4-10.5-5.1-10.8-11
			c-0.9-0.6-1.6-1.3-2.2-2.1c-3.2-4-2.8-9.8,0.9-13.4c-2.2-9.2,3.6-18.5,12.8-20.7c2.6-0.6,5.3-0.6,8,0c2-4.5,7.3-6.6,11.8-4.6
			c1.4,0.6,2.6,1.5,3.5,2.7c0.4,0.6,0.8,1.2,1.1,1.8c7.3-1.2,14.1,3.7,15.3,11c0.3,2.1,0.2,4.2-0.4,6.2c4.2,3.6,4.8,10,1.1,14.2
			c-1.6,1.8-3.7,3-6.1,3.4c-0.9,3.3-2.8,6.1-5.4,8.2c-3.4,2.6-7.7,3.7-12,3c0,3.9,0.9,9.2,5.2,13c0.1,0.1,0.1,0.2,0.1,0.3
			c0,0.1-0.1,0.2-0.2,0.2C54.5,99.3,52.8,99.5,51.1,99.5z M38,39.4c-9.1,0-16.5,7.5-16.5,16.6c0,1.3,0.2,2.6,0.5,3.9
			c0,0.1,0,0.2-0.1,0.3c-3.6,3.3-4,8.8-1,12.7c0.6,0.8,1.4,1.5,2.3,2.1c0.1,0.1,0.1,0.1,0.1,0.2c0.2,5.7,4.8,10.3,10.5,10.6
			c0.1,0,0.3,0.1,0.3,0.2c0.9,4.1,3.7,7.8,7.7,10.2c4.1,2.4,8.9,3.2,13.5,2.1c-4.3-4-5.1-9.5-5-13.4c0-0.2,0.2-0.3,0.3-0.3
			c0,0,0,0,0,0c7.7,1.5,15.2-3.3,17.1-10.9c0-0.1,0.1-0.2,0.3-0.2c5.2-0.7,8.8-5.5,8.1-10.7c-0.3-2.4-1.5-4.5-3.4-6
			c-0.1-0.1-0.1-0.2-0.1-0.3c2.2-6.6-1.4-13.8-8-16.1c-2-0.7-4.2-0.8-6.3-0.4c-0.1,0-0.3-0.1-0.3-0.2c-1.7-4.2-6.6-6.3-10.9-4.5
			c-2.1,0.9-3.7,2.5-4.5,4.6c-0.1,0.1-0.2,0.2-0.4,0.2C40.8,39.6,39.4,39.4,38,39.4z"/>
		<path class="st0" d="M40,65.9l-5.5,1.3l-0.1-0.6c-0.2-0.8-0.3-1.6-0.2-2.4c0.1-0.6,0.3-1.3,0.6-1.8c0.7-1.1,1.4-2.2,2.2-3.2
			c0.6-0.8,0.9-1.5,0.8-2c-0.1-0.5-0.4-0.9-0.8-1.1c-0.5-0.2-1-0.3-1.5-0.1c-0.6,0.1-1.2,0.5-1.6,1.1c-0.3,0.6-0.4,1.4-0.3,2.6
			l-5.8,0.6c-0.3-1.9,0-3.9,1.1-5.6c1-1.6,2.9-2.7,5.6-3.3c2.1-0.5,3.9-0.5,5.5,0.1c2.1,0.8,3.3,2.2,3.8,4.2
			c0.2,0.8,0.2,1.7-0.1,2.6c-0.3,0.9-1,2-2.1,3.5c-0.8,1-1.3,1.8-1.4,2.3C39.8,64.6,39.8,65.3,40,65.9z M34.6,68.7l5.9-1.4l1.2,5.2
			L35.8,74L34.6,68.7z"/>
		<path class="st0" d="M54.1,54.2L50.3,53l0.1-0.4c0.1-0.5,0.4-1.1,0.7-1.5c0.3-0.4,0.6-0.7,1-0.9c0.8-0.4,1.7-0.8,2.5-1.2
			c0.7-0.3,1.1-0.6,1.2-1c0.1-0.3,0.1-0.7-0.1-1c-0.2-0.3-0.5-0.5-0.9-0.6c-0.4-0.1-0.9-0.1-1.3,0.1c-0.5,0.4-0.9,0.9-1.1,1.5
			l-3.8-1.7c0.5-1.3,1.4-2.4,2.6-3c1.2-0.6,2.7-0.6,4.6,0c1.3,0.3,2.4,1,3.3,2c0.9,1.1,1.3,2.5,0.8,3.9c-0.2,0.6-0.5,1.1-1,1.5
			c-0.8,0.6-1.6,1.1-2.5,1.4c-0.6,0.2-1.2,0.5-1.7,0.9C54.5,53.3,54.2,53.7,54.1,54.2z M49.8,54l4.1,1.3l-1.1,3.6l-4.1-1.3L49.8,54z
			"/>
	</g>
	<g id="freepik--Shadow--inject-2">
		<ellipse id="freepik--path--inject-2" class="st3" cx="100" cy="176.9" rx="77.9" ry="4.5"/>
	</g>
	<g id="freepik--question-marks--inject-2">
		<path class="st4" d="M62.9,109.1l-0.4-0.2c0.3-0.6,0.5-1.3,0.6-2l0.4,0C63.4,107.7,63.2,108.4,62.9,109.1z M62.7,104.5
			c-0.8-1.7-2.3-2.9-4.2-3.1l0.1-0.4c2,0.3,3.7,1.5,4.5,3.4L62.7,104.5z"/>
		<path class="st4" d="M60.6,113.1l-4,1.8l-0.2-0.4c-0.3-0.5-0.4-1.1-0.5-1.7c0-0.5,0-1,0.2-1.5c0.3-0.9,0.7-1.9,1.2-2.8
			c0.4-0.7,0.4-1.3,0.3-1.6c-0.1-0.3-0.4-0.6-0.7-0.7c-0.4-0.1-0.8,0-1.2,0.1c-0.5,0.2-0.8,0.6-1,1c-0.2,0.5-0.1,1.1,0.2,2l-4.3,1.3
			c-0.5-1.4-0.5-2.9,0-4.3c0.5-1.3,1.8-2.4,3.7-3.3c1.5-0.7,2.9-0.9,4.1-0.7c1.5,0.2,2.8,1.2,3.4,2.6c0.3,0.6,0.4,1.3,0.3,1.9
			c-0.2,1-0.6,2-1.1,2.9c-0.4,0.6-0.6,1.3-0.7,1.9C60.3,112.2,60.4,112.7,60.6,113.1z M57,116l4.2-1.9l1.7,3.7l-4.2,1.9L57,116z"/>
		<path class="st4" d="M50.8,122.1l-2,2.7l-0.3-0.2c-0.4-0.3-0.7-0.6-1-1c-0.2-0.3-0.4-0.7-0.4-1.1c-0.1-0.8-0.2-1.6-0.2-2.3
			c0-0.6-0.2-1-0.4-1.2c-0.2-0.2-0.5-0.3-0.8-0.2c-0.3,0.1-0.6,0.3-0.7,0.5c-0.2,0.3-0.3,0.7-0.3,1.1c0.1,0.5,0.4,1,0.9,1.3
			l-2.4,2.5c-0.9-0.7-1.5-1.8-1.7-2.9c-0.1-1.1,0.3-2.3,1.3-3.7c0.6-0.9,1.5-1.6,2.5-2c1.1-0.5,2.4-0.3,3.3,0.4
			c0.4,0.3,0.7,0.7,0.9,1.2c0.3,0.8,0.4,1.6,0.4,2.4c0,0.5,0.1,1.1,0.2,1.6C50.2,121.6,50.5,121.8,50.8,122.1z M49.5,125.4l2.2-2.9
			l2.6,1.9l-2.2,2.9L49.5,125.4z"/>
	</g>
	<g id="freepik--Character--inject-2">
		<path class="st4" d="M93.6,175.5c-0.7,0-1.3-0.4-1.6-1c-1.6-3.1-3.6-6.8-7.3-10.7c-0.4-0.5-0.6-1.1-0.4-1.7
			c1.4-4.7,3.5-11.1,3.5-11.2c0.3-1,1.3-1.5,2.2-1.2c1,0.3,1.5,1.3,1.2,2.2c0,0,0,0.1,0,0.1c0,0.1-1.9,5.6-3.2,10.1
			c2.8,3.3,5.2,6.9,7.2,10.8c0.5,0.9,0.1,2-0.8,2.4C94.2,175.4,93.9,175.5,93.6,175.5L93.6,175.5z"/>
		<polygon class="st5" points="96.6,176.9 82.6,176.9 90,172.7 96.2,172.9 		"/>
		
			<ellipse transform="matrix(0.9544 -0.2984 0.2984 0.9544 -40.6769 34.3888)" class="st5" cx="92.3" cy="150.4" rx="12.1" ry="10"/>
		<path class="st5" d="M60.5,143.9c-1,0-1.8-0.8-1.8-1.8c0-0.7,0.4-1.4,1.1-1.7c0.6-0.3,1.1-0.8,1.2-1.5c0.1-0.8,0.7-1.5,1.5-1.6
			c0.4-0.1,0.9-0.2,1.3-0.3c2.4-0.7,5.5-1.6,15,1.1c9.4-5.3,9.5-15.1,9.5-15.5c0-1,0.8-1.8,1.8-1.8l0,0c1,0,1.8,0.8,1.8,1.8
			c0,0.5-0.1,12.9-12.1,19.1c-0.4,0.2-0.9,0.3-1.3,0.1c-9.1-2.6-11.7-1.9-13.7-1.3l-0.6,0.2c-0.5,1.4-1.7,2.6-3.1,3.2
			C61,143.8,60.7,143.9,60.5,143.9z"/>
		<path class="st4" d="M81.6,131C78.1,117.4,69,82.3,98.2,80.2c26.2-1.9,33.4,32.9,35.1,45c0.9,6.1,1.3,12.2,1.4,18.4
			c0.1,6.4-4.4,12-10.8,13.3c-14.3,2.9-27.8,3.3-36.9-0.3c-2.5-1-4-3.5-3.7-6.1C83.8,146.6,83.8,139.8,81.6,131z"/>
		<path class="st6" d="M133.3,125.2c-1.6-11.4-8.1-43-30.8-45c-2.6-0.3-5.2,1.1-6.5,3.4c-1,2-1,4.3,0.5,6.7
			c5,7.8,16.9,34.5,15.1,49.1c-0.8,6.6-5,11.9-1.4,19.4c4.6-0.4,9.1-1.1,13.6-2c6.3-1.3,10.8-6.8,10.8-13.3
			C134.7,137.4,134.2,131.3,133.3,125.2z"/>
		<path class="st5" d="M129.4,143.8c-0.1,0-0.2-0.1-0.2-0.2c-0.1-6.2-0.5-12.3-1.4-18.4c-4.3-30-16-45.2-33.8-43.8
			c-0.1,0-0.2-0.1-0.2-0.2c0,0,0,0,0,0c0-0.1,0.1-0.2,0.2-0.2c18-1.3,29.8,13.9,34.1,44.2c0.9,6.1,1.4,12.3,1.4,18.4
			C129.6,143.7,129.5,143.8,129.4,143.8L129.4,143.8L129.4,143.8z"/>
		<ellipse transform="matrix(0.9544 -0.2984 0.2984 0.9544 -39.4194 44.54)" class="st5" cx="126.2" cy="151.4" rx="12.1" ry="10"/>
		<path class="st4" d="M130.3,175.5c-0.7,0-1.3-0.4-1.6-1c-1.6-3.1-3.6-6.8-7.3-10.7c-0.4-0.5-0.6-1.1-0.4-1.7
			c1.4-4.7,3.5-11.1,3.5-11.2c0.3-0.9,1.3-1.5,2.3-1.1s1.5,1.3,1.1,2.3l0,0c0,0.1-1.9,5.6-3.2,10.1c2.8,3.3,5.2,6.9,7.2,10.8
			c0.5,0.9,0.1,2-0.8,2.4C130.8,175.4,130.5,175.5,130.3,175.5L130.3,175.5z"/>
		<path class="st5" d="M126.5,120.5c-1,0-1.8-0.8-1.8-1.8c0-0.7,0.4-1.3,1-1.6l0,0c0.3-0.2,8.2-4.5,10.4-14.8
			c-5.2-2.2-14.6-7.1-16.7-9.6c-0.2-0.2-0.3-0.5-0.4-0.8c-0.2-1.5-0.1-3,0.4-4.4l-0.9-1.8c-0.5-0.9-0.1-2,0.8-2.4
			c0.9-0.5,2-0.1,2.4,0.8l1.4,2.6c0.3,0.6,0.3,1.2-0.1,1.8c-0.4,0.7-0.5,1.6-0.4,2.4c2.3,2.1,11.7,7,16.2,8.7c0.8,0.3,1.3,1.1,1.2,2
			c-2,13.2-12.1,18.6-12.5,18.8C127,120.5,126.8,120.5,126.5,120.5z"/>
		<path class="st5" d="M120.7,92.5c-0.5,0-0.9-0.4-0.9-0.9c0-0.2,0.1-0.3,0.1-0.5c0.1-0.1,1.6-2.3,3.8-2.9c0.5-0.1,1,0.2,1.1,0.6
			c0.1,0.5-0.2,1-0.6,1.1l0,0c-1.6,0.4-2.8,2.2-2.8,2.2C121.3,92.3,121,92.5,120.7,92.5z"/>
		<polygon class="st5" points="133.3,176.9 119.3,176.9 126.7,172.7 132.9,172.9 		"/>
		
			<ellipse transform="matrix(0.9961 -8.819816e-02 8.819816e-02 0.9961 -9.6924 9.55)" class="st1" cx="103.2" cy="114.5" rx="9.6" ry="8.6"/>
		<ellipse transform="matrix(0.9617 -0.274 0.274 0.9617 -27.7318 32.0466)" class="st5" cx="100.9" cy="115.3" rx="2.6" ry="4.8"/>
		<path class="st5" d="M92.3,116.1c6.1-0.8,18.1-4.2,20.1-5.6c-1.6-4.6-8.8-8.5-15.3-6.3C91.2,106.2,92.3,116.1,92.3,116.1z"/>
		<path class="st5" d="M93.5,119c7.5-1.4,17.3-3.8,20.1-5.4c-0.2,4.9-1.6,9.9-9.3,11.6C98,126.6,93.5,119,93.5,119z"/>
		<ellipse transform="matrix(0.834 -0.5518 0.5518 0.834 -51.0303 65.3758)" class="st1" cx="83.1" cy="117.5" rx="5.9" ry="7.5"/>
		<path class="st5" d="M83.3,117.6c0.5,2.2,0.1,3.9-0.9,4c-0.9,0.1-2.1-1.6-2.5-3.8c-0.5-2.2-0.1-3.9,0.9-4
			C81.7,113.8,82.8,115.5,83.3,117.6z"/>
		<path class="st5" d="M75.8,116.8c4.1,0.5,12.2-0.1,13.5-0.8c-1-3.9-5.8-8.3-10.2-7.7C75.2,108.8,75.8,116.8,75.8,116.8z"/>
		<path class="st5" d="M76.6,119.3c5.1,0.2,11.7,0.1,13.5-0.6c-0.2,3.9-1.2,7.5-6.4,7.5C79.5,126.2,76.6,119.3,76.6,119.3z"/>
		<path class="st5" d="M105.7,101.8c-4.6,0-9.1-1.3-12.9-3.9c-0.8-0.6-0.9-1.7-0.3-2.5c0.6-0.8,1.7-0.9,2.5-0.3l0,0
			c4.3,2.8,9.4,3.8,14.4,2.9c1-0.2,1.9,0.5,2.1,1.4c0.2,1-0.5,1.9-1.4,2.1C108.6,101.7,107.1,101.8,105.7,101.8z"/>
		<path class="st5" d="M73.4,98.7c-1,0-1.8-0.8-1.8-1.8c0-0.2,0-0.4,0.1-0.6c1-2.7,2.5-4.4,4.7-5.1c3.9-1.4,8.2,1.3,8.3,1.4
			c0.8,0.5,1.1,1.7,0.5,2.5c-0.5,0.8-1.6,1.1-2.4,0.6c-0.8-0.5-3.4-1.7-5.3-1c-1.1,0.4-1.9,1.3-2.5,2.9
			C74.9,98.2,74.2,98.7,73.4,98.7z"/>
		<path class="st5" d="M87.6,129.1c-0.1,0-0.1,0-0.1,0c-0.3-0.1-0.4-0.4-0.4-0.7c0.3-0.9,1-1.6,1.8-2c2.1-1.1,5.2-0.8,9.4,0.7
			c0.3,0.1,0.4,0.4,0.3,0.7c0,0,0,0,0,0c-0.1,0.3-0.4,0.4-0.7,0.3c0,0,0,0,0,0c-4.8-1.7-7.2-1.3-8.4-0.7c-0.6,0.3-1.1,0.7-1.3,1.3
			C88.1,128.9,87.9,129.1,87.6,129.1z"/>
		<path class="st4" d="M70.6,127.1c-6.3,0.6-12.4,2.4-18,5.3c3.1-0.6,14.2,13.1,17.1,23.7c5.3-1.9,11.4-3.3,17.9-4.3
			C83.7,140.9,76.4,128.5,70.6,127.1z"/>
		<path class="st7" d="M70.6,127.1c-6.3,0.6-12.4,2.4-18,5.3c3.1-0.6,14.2,13.1,17.1,23.7c5.3-1.9,11.4-3.3,17.9-4.3
			C83.7,140.9,76.4,128.5,70.6,127.1z"/>
		<path class="st4" d="M70.6,127.1c-6.9-0.8-18,5-18,5c-2,1.3-1.4,3.6-0.4,4.6c1-1.5,12.5-5.3,16.9-5.9
			C67,128.8,69,127.4,70.6,127.1z"/>
		<path class="st8" d="M70.6,127.1c-6.9-0.8-18,5-18,5c-2,1.3-1.4,3.6-0.4,4.6c1-1.5,12.5-5.3,16.9-5.9
			C67,128.8,69,127.4,70.6,127.1z"/>
		<path class="st5" d="M60.5,143.9c-0.6,0-1.2-0.3-1.5-0.8c-1.3-2-0.5-5.1-0.3-5.7c0.3-0.9,1.3-1.4,2.3-1.1c0.9,0.3,1.4,1.2,1.2,2.2
			c-0.3,1-0.4,2.3-0.1,2.7c0.5,0.8,0.3,2-0.5,2.5C61.2,143.8,60.8,143.9,60.5,143.9z"/>
	</g>
	<g id="freepik--error-400--inject-2">
		<path class="st4" d="M54.3,65.1h-6.1v-2.7l6.1-7.2h2.9v7.4h1.5v2.6h-1.5v2.2h-2.9V65.1z M54.3,62.5v-3.8l-3.2,3.8H54.3z"/>
		<path class="st4" d="M59.8,61.3c0-2.3,0.4-3.9,1.2-4.8c0.8-0.9,2.1-1.4,3.8-1.4c0.7,0,1.4,0.1,2,0.3c0.5,0.2,0.9,0.4,1.3,0.8
			c0.3,0.3,0.6,0.6,0.8,1c0.2,0.4,0.4,0.8,0.5,1.2c0.2,0.9,0.3,1.9,0.3,2.8c0,2.2-0.4,3.8-1.1,4.8c-0.7,1-2,1.5-3.8,1.5
			c-0.8,0-1.7-0.1-2.5-0.5c-0.6-0.3-1.2-0.8-1.5-1.4c-0.3-0.6-0.6-1.2-0.7-1.8C59.9,63,59.8,62.1,59.8,61.3z M63.1,61.3
			c0,1.5,0.1,2.6,0.4,3.1c0.2,0.5,0.6,0.8,1.2,0.8c0.3,0,0.6-0.1,0.9-0.4c0.3-0.3,0.5-0.7,0.5-1.1c0.1-0.8,0.2-1.6,0.2-2.4
			c0-1.6-0.1-2.7-0.4-3.2c-0.2-0.5-0.7-0.8-1.2-0.8c-0.5,0-1,0.3-1.2,0.8C63.2,58.7,63.1,59.8,63.1,61.3L63.1,61.3z"/>
		<path class="st4" d="M71,61.3c0-2.3,0.4-3.9,1.2-4.8c0.8-0.9,2.1-1.4,3.8-1.4c0.7,0,1.4,0.1,2,0.3c0.5,0.2,0.9,0.4,1.3,0.8
			c0.3,0.3,0.6,0.6,0.8,1c0.2,0.4,0.4,0.8,0.5,1.2c0.2,0.9,0.3,1.9,0.3,2.8c0,2.2-0.4,3.8-1.1,4.8c-0.7,1-2,1.5-3.8,1.5
			c-0.8,0-1.7-0.1-2.5-0.5c-0.6-0.3-1.2-0.8-1.5-1.4c-0.3-0.6-0.6-1.2-0.7-1.8C71.1,63,71,62.1,71,61.3z M74.3,61.3
			c0,1.5,0.1,2.6,0.4,3.1c0.2,0.5,0.6,0.8,1.2,0.8c0.3,0,0.6-0.1,0.9-0.4c0.3-0.3,0.5-0.7,0.6-1.1c0.1-0.8,0.2-1.6,0.2-2.4
			c0-1.6-0.1-2.7-0.4-3.2c-0.2-0.5-0.7-0.8-1.2-0.8c-0.5,0-1,0.3-1.2,0.8C74.4,58.7,74.3,59.8,74.3,61.3L74.3,61.3z"/>
		<path class="st5" d="M88.3,55.3h9.9v2.6H92v1.9h5.8v2.5H92v2.4h6.4v2.7H88.3V55.3z"/>
		<path class="st5" d="M100.5,67.3v-12h6.2c0.9,0,1.8,0.1,2.6,0.3c0.6,0.2,1.1,0.6,1.5,1.1c1.1,1.5,0.7,3.6-0.8,4.7
			c-0.1,0-0.1,0.1-0.2,0.1c-0.4,0.2-0.8,0.4-1.3,0.5c0.3,0.1,0.7,0.2,1,0.4c0.2,0.2,0.4,0.4,0.6,0.6c0.2,0.2,0.4,0.5,0.5,0.7
			l1.8,3.5h-4.2l-2-3.7c-0.2-0.4-0.4-0.7-0.7-0.9c-0.3-0.2-0.6-0.3-0.9-0.3h-0.3v4.9L100.5,67.3z M104.2,60.2h1.6
			c0.3,0,0.7-0.1,1-0.2c0.2,0,0.5-0.2,0.6-0.4c0.4-0.5,0.3-1.2-0.1-1.6c-0.4-0.2-0.9-0.4-1.4-0.3h-1.6V60.2z"/>
		<path class="st5" d="M113.5,67.3v-12h6.2c0.9,0,1.8,0.1,2.6,0.3c0.6,0.2,1.1,0.6,1.5,1.1c1.1,1.5,0.7,3.7-0.9,4.7
			c-0.1,0-0.1,0.1-0.2,0.1c-0.4,0.2-0.8,0.4-1.3,0.5c0.6,0.1,1.2,0.5,1.6,1.1c0.2,0.2,0.4,0.5,0.5,0.7l1.8,3.5h-4.2l-2-3.7
			c-0.2-0.4-0.4-0.7-0.7-0.9c-0.3-0.2-0.6-0.3-0.9-0.3h-0.3v4.9H113.5z M117.3,60.2h1.6c0.3,0,0.7-0.1,1-0.2c0.2,0,0.5-0.2,0.6-0.4
			c0.4-0.5,0.3-1.2-0.1-1.6c-0.4-0.3-0.9-0.4-1.4-0.3h-1.6V60.2z"/>
		<path class="st5" d="M125.8,61.3c0-2,0.5-3.5,1.6-4.6c1.1-1.1,2.6-1.6,4.6-1.6c2,0,3.5,0.5,4.6,1.6s1.6,2.6,1.6,4.5
			c0.1,1.2-0.2,2.4-0.7,3.5c-0.5,0.9-1.2,1.6-2,2.1c-1,0.5-2.2,0.8-3.3,0.7c-1.2,0-2.3-0.2-3.4-0.6c-0.9-0.5-1.7-1.2-2.2-2
			C126,63.8,125.7,62.6,125.8,61.3z M129.5,61.3c0,1.2,0.2,2.1,0.7,2.6c1,1,2.6,1.1,3.6,0.1c0,0,0.1-0.1,0.1-0.1
			c0.4-0.5,0.7-1.5,0.7-2.8c0-1.1-0.2-2-0.7-2.5c-0.5-0.5-1.2-0.8-1.9-0.8c-0.7,0-1.4,0.3-1.8,0.8C129.7,59.3,129.5,60.1,129.5,61.3
			L129.5,61.3z"/>
		<path class="st5" d="M140.3,67.3v-12h6.2c0.9,0,1.8,0.1,2.6,0.3c0.6,0.2,1.1,0.6,1.5,1.1c0.4,0.6,0.6,1.3,0.6,1.9
			c0,0.6-0.1,1.2-0.4,1.7c-0.3,0.5-0.7,0.9-1.2,1.2c-0.4,0.2-0.8,0.4-1.3,0.5c0.3,0.1,0.7,0.2,1,0.4c0.2,0.2,0.4,0.4,0.6,0.6
			c0.2,0.2,0.4,0.5,0.5,0.7l1.8,3.5h-4.2l-2-3.7c-0.2-0.4-0.4-0.7-0.7-0.9c-0.3-0.2-0.6-0.3-0.9-0.3H144v4.9L140.3,67.3z M144,60.2
			h1.6c0.3,0,0.7-0.1,1-0.2c0.2,0,0.5-0.2,0.6-0.4c0.2-0.2,0.2-0.4,0.2-0.7c0-0.3-0.1-0.7-0.4-0.9c-0.4-0.3-0.9-0.4-1.4-0.3H144
			V60.2z"/>
	</g>
</g>
</svg>
