<?xml version="1.0" encoding="utf-8"?>
<!-- Generator: Adobe Illustrator 25.0.1, SVG Export Plug-In . SVG Version: 6.00 Build 0)  -->
<svg version="1.1" id="Layer_1" xmlns="http://www.w3.org/2000/svg" xmlns:xlink="http://www.w3.org/1999/xlink" x="0px" y="0px"
	 viewBox="0 0 200 200" style="enable-background:new 0 0 200 200;" xml:space="preserve">
<style type="text/css">
	.st0{fill:#FFFFFF;}
	.st1{fill:#098178;}
	.st2{fill:#FDFFF3;}
</style>
<g>
	<path class="st0" d="M95.7,78c-0.2,5.1,0.7,9.9,4.1,13.1c11.6-4.3,26.8-8.1,31.3-0.6c6.2,10.1-15.9,11.6-22.1,11.8
		c-3.4,0.2-6.6-0.2-9.6-0.6c-2.6,1.1-5.2,2.6-7.9,4.1c-14.2,9-23.6,21.9-22.9,37.7c1.5,34.1,59.2,11.4,62.8-11.8
		c0.7-5.4,18.4-4.7,17.6,0c-4.9,30.9-86.2,57.9-97.2,18.4c-6.6-23.2,13.1-43.3,35-53.6c-5.8-4.3-9-10.9-8.8-18.7
		c-14.8-2.1-29-9-36-20.6c-3-4.9,14.2-6.4,17-2.1c4.5,7.7,11.8,12,20.2,13.9c5.2-19.1,27.5-32.2,49.5-33.5c12-0.7,29,2.8,24.5,16.3
		C148.1,67.7,116.8,76.3,95.7,78z M134.3,42.8c-5.6-3.6-22.5,7.1-25.5,9.6C103,57,98.7,63,96.8,69.8c1.3-0.2,2.4-0.2,3.7-0.4
		C106,68.4,150,53.1,134.3,42.8z"/>
</g>
<g>
	<path class="st1" d="M147.1,50.4H50.4c-6.9,0-12.7,5.2-13.5,12.1L25.3,169.6c-0.9,8,5.4,15,13.5,15h122.4c8.2,0,14.5-7.2,13.5-15.4
		L160.5,62.2C159.6,55.5,153.9,50.4,147.1,50.4z"/>
	<g>
		<g>
			<path class="st0" d="M99.3,157c-28.2,0-38.9-26.3-40.6-40.2c-0.3-2.7,1.6-5.1,4.2-5.4c2.7-0.3,5.1,1.6,5.4,4.2
				c0.2,1.4,4.3,31.6,31,31.6c26.7,0,30.8-30.4,31-31.6c0.3-2.7,2.8-4.5,5.4-4.2c2.7,0.3,4.5,2.7,4.2,5.4
				C138.2,130.7,127.5,157,99.3,157z"/>
		</g>
		<circle class="st2" cx="63.5" cy="92.8" r="9.8"/>
		<g>
			<path class="st0" d="M146.2,99.8c-1.2,0-2.5-0.5-3.4-1.4c-6.4-6.4-15-0.3-16,0.4c-2.1,1.6-5.2,1.2-6.8-0.9
				c-1.6-2.1-1.2-5.2,0.9-6.8c5.5-4.3,18.7-9.7,28.8,0.4c1.9,1.9,1.9,5,0,6.9C148.7,99.3,147.5,99.8,146.2,99.8z"/>
		</g>
	</g>
	<g>
		<path class="st1" d="M131.6,55.3c-0.1,0-0.2,0-0.3,0c-2.7-0.2-4.7-2.5-4.5-5.2c0-0.1,0.6-10.6-6.2-17.8C116,27.5,109.1,25,100,25
			C72.1,25,70.5,48,70.4,50.6c-0.1,2.7-2.3,4.8-5,4.7c-2.7-0.1-4.8-2.3-4.7-5c0.3-12.1,8.9-35,39.3-35c11.9,0,21.2,3.5,27.7,10.4
			c9.7,10.4,8.8,24.5,8.7,25.1C136.2,53.3,134.1,55.3,131.6,55.3z"/>
	</g>
</g>
</svg>
