<?xml version="1.0" encoding="utf-8"?>
<!-- Generator: Adobe Illustrator 25.0.1, SVG Export Plug-In . SVG Version: 6.00 Build 0)  -->
<svg version="1.1" id="Layer_1" xmlns="http://www.w3.org/2000/svg" xmlns:xlink="http://www.w3.org/1999/xlink" x="0px" y="0px"
	 viewBox="0 0 373.1 103" style="enable-background:new 0 0 373.1 103;" xml:space="preserve">
<style type="text/css">
	.st0{fill:#098178;}
	.st1{fill:#FFFFFF;}
	.st2{fill:#FDFFF3;}
</style>
<g>
	<g>
		<path class="st0" d="M70.9,23.3h-55c-4,0-7.3,3-7.7,6.9l-6.6,61c-0.6,4.6,3,8.6,7.7,8.6h69.7c4.7,0,8.3-4.1,7.6-8.7l-7.9-61.1
			C78.1,26.1,74.7,23.3,70.9,23.3z"/>
	</g>
	<g>
		<g>
			<g>
				<path class="st1" d="M43.8,83.9c-16,0-22.1-14.9-23.1-22.8c-0.1-1.5,0.8-2.9,2.4-3c1.5-0.1,2.9,0.8,3,2.4
					c0.1,0.8,2.5,18,17.6,18c15.2,0,17.6-17.3,17.6-18c0.1-1.5,1.5-2.6,3-2.4c1.5,0.1,2.6,1.5,2.4,3C65.9,68.9,59.8,83.9,43.8,83.9z
					"/>
			</g>
		</g>
		<g>
			<circle class="st2" cx="23.3" cy="47.4" r="5.5"/>
		</g>
		<g>
			<g>
				<path class="st1" d="M70.4,51.4c-0.7,0-1.4-0.3-1.9-0.8c-3.7-3.7-8.6-0.1-9.1,0.3c-1.2,1-2.9,0.7-3.9-0.6
					c-1-1.2-0.7-2.9,0.6-3.9c3.2-2.5,10.6-5.5,16.3,0.3c1.1,1.1,1.1,2.8,0,3.9C71.8,51.1,71.1,51.4,70.4,51.4z"/>
			</g>
		</g>
	</g>
	<g>
		<g>
			<path class="st0" d="M62,26.1h-0.1c-1.5-0.1-2.6-1.4-2.6-2.9c0,0,0.3-6.1-3.6-10.1C53,10.3,49.2,8.9,44,8.9
				C28.3,8.8,27.3,21.8,27.3,23.3c0,1.5-1.4,2.8-2.9,2.6c-1.5,0-2.8-1.2-2.6-2.8c0.1-6.9,5.1-19.9,22.4-19.9
				c6.8,0,12.2,1.9,15.8,5.9c5.5,5.9,5,14,5,14.2C64.8,24.8,63.5,26.1,62,26.1z"/>
		</g>
	</g>
</g>
<g>
	<path class="st0" d="M105.3,81.9c0.9-11.4,1.4-23.9,1.6-37.6l-11.6,0.4l0.1-3.9c0.1-2.1,0.1-4.4,0.2-6.9c5.2,0,11.2,0.1,18.1,0.1
		l6.7,0h6.5l3.5,0l-0.2,3.4c-0.1,1.8-0.1,3.4-0.1,4.6s0,2.1,0,2.7c-3.9-0.3-7.1-0.4-9.6-0.4h-1.9c-0.3,4.1-0.5,8-0.6,11.5
		c-0.2,5-0.4,9.9-0.5,14.7c-0.1,4.7-0.2,8.6-0.2,11.5c-3,0-4.9-0.1-5.8-0.1C110.8,81.9,108.7,81.9,105.3,81.9z"/>
	<path class="st0" d="M148.4,45.1c2.3,0,4.4,0.4,6.5,1.3c2.1,0.9,3.8,2.2,5.3,3.8c1.4,1.7,2.5,3.6,3.2,5.9c0.7,2.2,1,4.6,1,7.2
		c0,2.5-0.3,4.9-0.9,7.2c-0.6,2.3-1.6,4.4-3.1,6.4s-3.3,3.5-5.6,4.4s-4.6,1.5-7.1,1.5c-2.3,0-4.5-0.4-6.7-1.3
		c-2.1-0.9-3.9-2.1-5.3-3.8c-1.4-1.7-2.5-3.7-3.2-6s-1.1-4.8-1.1-7.3c0-2.6,0.4-5,1.1-7.3s1.8-4.4,3.3-6.3c1.5-1.9,3.4-3.3,5.6-4.3
		C143.6,45.6,146,45.1,148.4,45.1z M148.2,55.5c-1.2,0-2.2,0.4-3.1,1.2c-0.9,0.8-1.6,1.9-2.1,3.4c-0.5,1.5-0.7,3.1-0.7,4.9
		c0,2.6,0.5,4.6,1.5,5.9c1,1.4,2.3,2.1,3.8,2.1c1.1,0,2.2-0.4,3.1-1.2c0.9-0.8,1.6-1.9,2.1-3.5c0.5-1.5,0.7-3.2,0.7-4.9
		c0-1.5-0.2-2.8-0.5-3.9c-0.4-1.2-1-2.1-1.8-2.8C150.3,55.8,149.3,55.5,148.2,55.5z"/>
	<path class="st0" d="M168.3,81.9c0.3-3,0.4-5.4,0.5-7.3c0.1-2.6,0.3-5.8,0.4-9.6l0.3-8.3c0.1-3.8,0.2-7.4,0.3-10.8
		c0.1-4.1,0.1-8.1,0.1-11.9c2.5,0,4.5,0.1,5.7,0.1c1.5,0,3.2,0,5.2-0.1c-0.4,6.1-0.8,13.8-1.2,22.9s-0.5,17.5-0.5,25.1
		c-2.1,0-3.9-0.1-5.3-0.1C172.2,81.9,170.4,81.9,168.3,81.9z M180.3,61.7L185,53l3.5-7c2.5,0,4.4,0.1,5.7,0.1c1.8,0,3.9,0,6.3-0.1
		l-5.4,9.1c-1.3,2.1-2.6,4.3-3.9,6.7c1.3,3,4.3,9.7,9.2,20.1c-2.1,0-4-0.1-5.8-0.1c-1.7,0-3.7,0-6,0.1l-1.7-4.4
		c-0.6-1.5-1.1-2.8-1.6-3.8c-0.2-0.4-1.4-3.3-3.7-8.6L180.3,61.7z"/>
	<path class="st0" d="M219.5,45.1c2.3,0,4.4,0.4,6.5,1.3c2.1,0.9,3.8,2.2,5.3,3.8c1.4,1.7,2.5,3.6,3.2,5.9c0.7,2.2,1,4.6,1,7.2
		c0,2.5-0.3,4.9-0.9,7.2c-0.6,2.3-1.6,4.4-3.1,6.4c-1.5,2-3.3,3.5-5.6,4.4c-2.2,1-4.6,1.5-7.1,1.5c-2.3,0-4.5-0.4-6.7-1.3
		s-3.9-2.1-5.3-3.8c-1.4-1.7-2.5-3.7-3.2-6c-0.7-2.3-1.1-4.8-1.1-7.3c0-2.6,0.3-5,1.1-7.3c0.7-2.3,1.8-4.4,3.3-6.3
		c1.5-1.9,3.4-3.3,5.6-4.3C214.8,45.6,217.1,45.1,219.5,45.1z M219.3,55.5c-1.2,0-2.2,0.4-3.1,1.2c-0.9,0.8-1.6,1.9-2.1,3.4
		c-0.5,1.5-0.7,3.1-0.7,4.9c0,2.6,0.5,4.6,1.5,5.9s2.3,2.1,3.8,2.1c1.1,0,2.2-0.4,3.1-1.2c0.9-0.8,1.6-1.9,2.1-3.5s0.7-3.2,0.7-4.9
		c0-1.5-0.2-2.8-0.5-3.9c-0.4-1.2-1-2.1-1.8-2.8S220.4,55.5,219.3,55.5z"/>
	<path class="st0" d="M239.6,81.9c0.5-5.5,0.8-10,1-13.5c0.4-6.4,0.7-12.7,0.9-19c0.2-6.3,0.3-11.4,0.3-15.5c2.5,0,4.7,0.1,6.6,0.1
		c1.3,0,3.1,0,5.6-0.1l-0.7,12.7l-0.8,19.9l-0.1,4.9c3.1,0.1,5.2,0.1,6.1,0.1c4.8,0,8.4-0.1,10.9-0.2l-0.6,10.6
		c-4.8,0-9.3-0.1-13.7-0.1C249.1,81.9,244,81.9,239.6,81.9z"/>
	<path class="st0" d="M274.9,56.3c0.3-2.3,0.6-3.9,0.7-4.8c0.1-0.9,0.2-2.3,0.4-4.1c5.2-1.5,9.7-2.2,13.5-2.2c2.1,0,4.1,0.3,5.9,0.9
		c1.8,0.6,3.2,1.6,4.2,3c1,1.4,1.5,3.4,1.5,5.9c0,1.3-0.1,4.3-0.4,8.9c-0.3,4.6-0.5,10.6-0.6,18.1c-1.8,0-3.6-0.1-5.3-0.1
		c-1.7,0-3.5,0-5.5,0.1c0.2-2.6,0.5-7.9,0.8-16c-0.7,0.4-1.2,0.7-1.6,0.9s-1.1,0.5-2.1,0.8c-1,0.4-1.7,0.7-2.3,0.9
		c-0.6,0.3-1,0.6-1.4,1s-0.7,0.8-0.9,1.2c-0.2,0.4-0.3,0.9-0.3,1.4c0,0.8,0.2,1.5,0.7,2s1.3,0.8,2.3,0.8c0.4,0,0.8,0,1.2-0.1
		s1-0.3,1.8-0.6c-0.5,1.8-1.2,4.4-1.9,7.9c-1.6,0.3-3,0.5-4.4,0.5c-2.3,0-4.1-0.4-5.6-1.2s-2.7-2.1-3.5-3.9
		c-0.8-1.8-1.2-3.6-1.2-5.4c0-1.1,0.1-2.2,0.5-3.2c0.3-1.1,0.8-2.1,1.4-3.1c0.6-1,1.4-1.9,2.2-2.6c0.9-0.7,2-1.4,3.5-2
		s3.4-1.2,5.6-1.8c0.9-0.2,1.8-0.5,2.6-0.8c0.8-0.3,1.4-0.5,1.7-0.7c0.3-0.2,0.6-0.4,0.8-0.7c0.2-0.3,0.4-0.6,0.5-0.8
		c0.1-0.3,0.1-0.6,0.1-0.9c0-0.9-0.3-1.6-0.9-2.1c-0.6-0.5-1.4-0.7-2.6-0.7C283.3,52.9,279.5,54,274.9,56.3z"/>
	<path class="st0" d="M306,81.9c0.3-3,0.4-5.4,0.5-7.3c0.1-2.6,0.3-5.8,0.4-9.6l0.3-8.3c0.1-3.8,0.2-7.4,0.3-10.8
		c0.1-4.1,0.1-8.1,0.1-11.9c2.5,0,4.5,0.1,5.7,0.1c1.5,0,3.2,0,5.2-0.1c-0.4,6.1-0.8,13.8-1.2,22.9c-0.3,9.1-0.5,17.5-0.5,25.1
		c-2.1,0-3.9-0.1-5.3-0.1C309.9,81.9,308.1,81.9,306,81.9z M318,61.7l4.7-8.7l3.5-7c2.5,0,4.4,0.1,5.7,0.1c1.8,0,3.9,0,6.3-0.1
		l-5.4,9.1c-1.3,2.1-2.6,4.3-3.9,6.7c1.3,3,4.3,9.7,9.2,20.1c-2.1,0-4-0.1-5.8-0.1c-1.7,0-3.7,0-6,0.1l-1.7-4.4
		c-0.6-1.5-1.1-2.8-1.6-3.8c-0.2-0.4-1.4-3.3-3.7-8.6L318,61.7z"/>
	<path class="st0" d="M371.5,81.9c-2.1,0-3.8-0.1-5.2-0.1c-1.7,0-3.4,0-5.2,0.1l0-4.8c-0.7,1.1-1.2,1.8-1.7,2.4
		c-0.5,0.5-1,1-1.5,1.4c-0.5,0.4-1.1,0.7-1.8,1s-1.4,0.5-2.3,0.7c-0.9,0.2-1.7,0.2-2.6,0.2c-1.4,0-2.8-0.2-4.1-0.7s-2.4-1.2-3.4-2.2
		c-1-1-1.6-2.2-2-3.5c-0.4-1.3-0.5-2.8-0.5-4.6c0-0.4,0-1.1,0.1-2l0.4-8c0.1-2.9,0.2-6.2,0.4-9.7c0.1-2.2,0.1-4.2,0.1-6.2
		c2.3,0,4.2,0.1,5.8,0.1c1.6,0,3.4,0,5.3-0.1l-0.8,13.4c-0.1,2-0.2,3.4-0.2,4.2c0,0.7,0,1.2,0,1.5c0,2.5,0.4,4.1,1.2,5
		c0.8,0.9,1.7,1.3,2.8,1.3c0.4,0,0.9-0.1,1.3-0.2s0.9-0.4,1.3-0.7c0.3-0.3,0.7-0.6,1-1.1c0.3-0.4,0.6-1,0.8-1.6
		c0.3-0.8,0.5-1.6,0.7-2.5c0.2-1.2,0.4-2.8,0.5-4.7c0.1-1.4,0.2-3.8,0.3-7.2l0.2-7.3c2.3,0,4.3,0.1,5.8,0.1c1.7,0,3.4,0,5.1-0.1
		c-0.4,6-0.7,11.6-1,17C371.8,68.4,371.7,74.7,371.5,81.9z"/>
</g>
</svg>
